<svg xmlns="http://www.w3.org/2000/svg" width="37.129" height="35.272" viewBox="0 0 37.129 35.272">
    <defs>
        <style>
            .cls-1{fill:#242424}
        </style>
    </defs>
    <path id="bx-briefcase-alt" d="M35.416 9.426h-5.569V5.713A3.717 3.717 0 0 0 26.134 2H15a3.717 3.717 0 0 0-3.713 3.713v3.713H5.713A3.717 3.717 0 0 0 2 13.139v20.42a3.717 3.717 0 0 0 3.713 3.713h29.7a3.717 3.717 0 0 0 3.713-3.713v-20.42a3.717 3.717 0 0 0-3.71-3.713zm-7.426 3.713v20.42H13.139v-20.42zm-1.856-7.426v3.713H15V5.713zM5.713 13.139h3.713v20.42H5.713zM31.7 33.559v-20.42h3.713V33.56z" class="cls-1" transform="translate(-2 -2)"/>
</svg>
