<svg xmlns="http://www.w3.org/2000/svg" width="36.062" height="32.455" viewBox="0 0 36.062 32.455">
    <path d="M1.8 32.455h32.459a1.8 1.8 0 0 0 1.558-2.712L23.195 8.107a1.878 1.878 0 0 0-3.118 0l-5.894 10.1-1.839-2.943a1.8 1.8 0 0 0-1.525-.844 1.8 1.8 0 0 0-1.527.847L.274 29.7A1.8 1.8 0 0 0 1.8 32.455zm19.837-19.861l9.482 16.255H20.835l-4.483-7.189zM10.82 19.626l5.763 9.223H5.058zm-3.608-8.808A5.409 5.409 0 1 0 1.8 5.409a5.416 5.416 0 0 0 5.412 5.409zm0-7.212a1.8 1.8 0 1 1-1.8 1.8 1.8 1.8 0 0 1 1.8-1.8z"/>
</svg>
