<svg xmlns="http://www.w3.org/2000/svg" width="22.955" height="22.955" viewBox="0 0 22.955 22.955">
    <defs>
        <style>
            .cls-1{fill:#fefefe}
        </style>
    </defs>
    <path id="bx-support" d="M3.148 20.364h2.3a1.147 1.147 0 0 0 1.148-1.148v-8.034A6.885 6.885 0 0 1 13.69 4.3a7.117 7.117 0 0 1 6.674 7.222V22.66h-4.591v-1.148h-4.591v3.443h10.33a1.147 1.147 0 0 0 1.148-1.148v-3.443h1.148a1.147 1.147 0 0 0 1.148-1.148V12.33a1.147 1.147 0 0 0-1.148-1.148h-1.154A9.417 9.417 0 0 0 13.76 2a9.182 9.182 0 0 0-9.46 9.182H3.148A1.147 1.147 0 0 0 2 12.33v6.887a1.147 1.147 0 0 0 1.148 1.147z" class="cls-1" transform="translate(-2 -2)"/>
</svg>
