<svg xmlns="http://www.w3.org/2000/svg" width="38.183" height="32.455" viewBox="0 0 38.183 32.455">
    <defs>
        <style>
            .cls-1{fill:none}.cls-2{fill:#242424}
        </style>
    </defs>
    <g id="bx-car_1_" data-name="bx-car (1)" transform="translate(-2 -4)">
        <path id="Path_1" d="M31.9 13.637l-2.11-6.331A1.909 1.909 0 0 0 27.977 6H10.569a1.909 1.909 0 0 0-1.811 1.306l-2.11 6.331zm2.65 11.454v-7.637H4v7.637h30.55zM9.727 23.182H5.909v-3.818h3.818zm22.91 0h-3.818v-3.818h3.818z" class="cls-1" data-name="Path 1" transform="translate(1.818 1.818)"/>
        <path id="Path_2" d="M37.838 15.753l-2.611-7.837A5.718 5.718 0 0 0 29.8 4H12.388a5.718 5.718 0 0 0-5.432 3.916l-2.612 7.837A3.825 3.825 0 0 0 2 19.273v7.637a3.808 3.808 0 0 0 1.909 3.29v4.349a1.907 1.907 0 0 0 1.909 1.909h1.909a1.907 1.907 0 0 0 1.909-1.909v-3.821h22.91v3.818a1.907 1.907 0 0 0 1.909 1.909h1.909a1.907 1.907 0 0 0 1.909-1.909V30.2a3.806 3.806 0 0 0 1.909-3.288v-7.639a3.825 3.825 0 0 0-2.344-3.52zM7.727 26.91H5.818v-7.637h30.546v7.637H7.727zm4.66-19.091h17.406A1.9 1.9 0 0 1 31.6 9.124l2.112 6.331H8.466l2.11-6.331a1.909 1.909 0 0 1 1.812-1.306z" class="cls-2" data-name="Path 2"/>
        <path id="Path_3" d="M5 13h3.818v3.818H5zm22.91 0h3.818v3.818H27.91z" class="cls-2" data-name="Path 3" transform="translate(2.727 8.182)"/>
    </g>
</svg>
