<svg xmlns="http://www.w3.org/2000/svg" width="17.5" height="17.5" viewBox="0 0 17.5 17.5">
    <defs>
        <style>
            .cls-1{fill:#ffcc27}
        </style>
    </defs>
    <path id="bxs-star-half_1_" d="M4.647 18.428a.875.875 0 0 0 1.339.925l4.764-3.176 4.764 3.176a.875.875 0 0 0 1.327-.968l-1.6-5.6 3.969-3.571a.875.875 0 0 0-.516-1.522l-4.988-.4-2.159-4.777a.874.874 0 0 0-1.594 0L7.794 7.294l-4.988.4a.875.875 0 0 0-.542 1.5l3.687 3.594zM10.75 5l1.787 3.956.514.044 3.476.276-2.862 2.576-.405.364.15.522 1.1 3.837-3.755-2.5z" class="cls-1" data-name="bxs-star-half (1)" transform="translate(-2 -2)"/>
</svg>
