<svg xmlns="http://www.w3.org/2000/svg" width="19.967" height="20" viewBox="0 0 19.967 20">
    <defs>
        <style>
            .cls-1{fill:#fff}
        </style>
    </defs>
    <g id="bxl-instagram-alt_3_" data-name="bxl-instagram-alt (3)" transform="translate(-2.997 -2.981)">
        <path id="Path_12" d="M22.9 8.884a7.239 7.239 0 0 0-.465-2.457 5.111 5.111 0 0 0-2.919-2.919 7.325 7.325 0 0 0-2.424-.466c-1.067-.048-1.4-.061-4.112-.061s-3.055 0-4.114.061a7.324 7.324 0 0 0-2.423.466 5.108 5.108 0 0 0-2.919 2.919 7.267 7.267 0 0 0-.465 2.423C3.011 9.917 3 10.256 3 12.963s0 3.054.062 4.114a7.313 7.313 0 0 0 .462 2.423 5.111 5.111 0 0 0 2.92 2.92 7.3 7.3 0 0 0 2.423.5c1.068.048 1.406.062 4.114.062s3.055 0 4.114-.062a7.306 7.306 0 0 0 2.424-.465 5.117 5.117 0 0 0 2.919-2.919 7.3 7.3 0 0 0 .462-2.426c.048-1.067.062-1.4.062-4.114s0-3.051-.062-4.112zm-9.927 9.2a5.126 5.126 0 1 1 5.127-5.126 5.125 5.125 0 0 1-5.127 5.126zM18.3 8.838a1.2 1.2 0 1 1 1.194-1.2 1.194 1.194 0 0 1-1.194 1.2z" class="cls-1" data-name="Path 12"/>
        <circle id="Ellipse_4" cx="3.003" cy="3.003" r="3.003" class="cls-1" data-name="Ellipse 4" transform="translate(9.969 9.954)"/>
    </g>
</svg>
