<svg xmlns="http://www.w3.org/2000/svg" width="20.001" height="20.005" viewBox="0 0 20.001 20.005">
    <path d="M20.001 3.084a3.08 3.08 0 0 0-5.26-2.18l-2.81 2.81-6.49-2.16a1 1 0 0 0-1 .24l-2.38 2.36a1 1 0 0 0 .29 1.61l5.18 2.35-2.6 2.6-1.71-.86a1 1 0 0 0-1.16.15l-1.77 1.81a1 1 0 0 0 0 1.41l6.49 6.49a1 1 0 0 0 1.41 0l1.81-1.77a1 1 0 0 0 .19-1.16l-.86-1.71 2.6-2.6 2.35 5.18a1 1 0 0 0 1.61.29l2.36-2.36a1 1 0 0 0 .24-1l-2.16-6.49 2.77-2.83a3.05 3.05 0 0 0 .9-2.18zm-2.32.77l-3.24 3.24a1 1 0 0 0-.24 1l2.16 6.48-.9.9-2.35-5.17a1 1 0 0 0-1.62-.29l-4.12 4.16a1 1 0 0 0-.19 1.15l.82 1.68-.56.56-5.03-5.04.59-.52 1.71.86a1 1 0 0 0 1.15-.19l4.14-4.16a1 1 0 0 0-.29-1.62l-5.21-2.35.9-.9 6.48 2.16a1 1 0 0 0 1-.24l3.24-3.24a1.07 1.07 0 0 1 1.53 0 1 1 0 0 1 .32.76 1.06 1.06 0 0 1-.29.77z"/>
</svg>
