<svg xmlns="http://www.w3.org/2000/svg" width="25.616" height="18" viewBox="0 0 25.616 18">
    <defs>
        <style>
            .cls-1{fill:#fff}
        </style>
    </defs>
    <path id="youtube_3_" d="M26.6 10.6a9.891 9.891 0 0 0-1.058-4.8 3.4 3.4 0 0 0-2-1.164 91.185 91.185 0 0 0-9.74-.361 91.282 91.282 0 0 0-9.7.349 3.34 3.34 0 0 0-1.7.861C1.351 6.448 1.234 8.1 1.118 9.5a56.19 56.19 0 0 0 0 7.54 11.113 11.113 0 0 0 .349 2.327 3.654 3.654 0 0 0 .826 1.583 3.328 3.328 0 0 0 1.734.908 52.572 52.572 0 0 0 7.564.384c4.073.058 7.645 0 11.869-.326A3.351 3.351 0 0 0 25.24 21a2.9 2.9 0 0 0 .71-1.164 12.311 12.311 0 0 0 .605-3.956c.045-.647.045-4.58.045-5.28zm-15.43 5.981V9.38L18.06 13c-1.931 1.07-4.48 2.28-6.888 3.583z" class="cls-1" data-name="youtube (3)" transform="translate(-.991 -4.258)"/>
</svg>
