<?xml version="1.0" encoding="utf-8"?>
<!-- Generator: Adobe Illustrator 21.1.0, SVG Export Plug-In . SVG Version: 6.00 Build 0)  -->
<svg version="1.1" id="Layer_1" xmlns="http://www.w3.org/2000/svg" xmlns:xlink="http://www.w3.org/1999/xlink" x="0px" y="0px"
	 viewBox="0 0 612 349.4" style="enable-background:new 0 0 612 349.4;" xml:space="preserve">
<style type="text/css">
	.st0{fill:#2A3C54;}
	.st1{fill:#44BFB6;}
	.st2{fill:#FFD23E;}
	.st3{fill:#9F9F9F;}
</style>
<g>
	<path class="st0" d="M112.3,198.9c3.8,1.5,7.9,2.8,12.5,3.7c4.5,0.9,9.1,1.4,13.5,1.4c3.2,0,6.3-0.3,9.2-1c2.9-0.7,5.5-1.7,7.7-3.1
		c2.2-1.4,3.9-3.1,5.2-5.1c1.3-2,2-4.3,2-6.8c0-2.8-0.5-5.1-1.6-6.9c-1.1-1.8-2.5-3.4-4.2-4.6c-1.7-1.3-3.8-2.3-6.1-3.3
		c-2.3-0.9-4.8-1.8-7.5-2.6l-7.3-2.7c-9-3.4-15.5-7.1-19.5-11.3c-4.1-4.2-6.1-9.9-6.1-17c0-9.5,3.4-17.1,10.2-22.7
		c6.8-5.6,16.7-8.4,29.9-8.4c5.5,0,10.8,0.5,16,1.6c5.2,1,9.8,2.3,13.7,3.7c-0.3,2.8-0.8,5.6-1.6,8.4c-0.8,2.8-1.7,5.4-2.8,7.8
		c-3.1-1.1-6.7-2.2-11-3.3c-4.3-1.1-8.8-1.6-13.7-1.6c-5.2,0-9.8,0.9-13.7,2.7c-4,1.8-6,5-6,9.7c0,2.4,0.5,4.4,1.5,6.1
		c1,1.7,2.3,3.1,4,4.3c1.7,1.2,3.6,2.2,5.8,3c2.2,0.8,4.5,1.7,7,2.5l9.2,3.1c3.4,1.1,6.5,2.4,9.5,4c3,1.5,5.6,3.5,7.8,5.8
		c2.2,2.3,3.9,5.1,5.2,8.4c1.3,3.3,2,7.2,2,11.9c0,5.2-1.1,9.9-3.1,14.2c-2.1,4.3-5.1,7.9-8.9,10.9c-3.8,3-8.5,5.3-13.9,7
		c-5.5,1.7-11.5,2.5-18,2.5c-6.7,0-12.6-0.5-17.6-1.4c-5-0.9-9.7-2.1-14.1-3.7c0.3-2.8,0.9-5.6,1.8-8.5
		C110.1,204.5,111.1,201.7,112.3,198.9z"/>
	<path class="st0" d="M197.9,110.8c1.5-0.3,3.3-0.5,5.2-0.6c2-0.1,3.6-0.2,5-0.2c1.5,0,3.3,0.1,5.2,0.2c2,0.1,3.7,0.4,5.2,0.6v59
		c0,6.7,0.6,12.3,1.9,16.7c1.3,4.4,3.1,7.9,5.7,10.4c2.5,2.5,5.6,4.3,9.2,5.2c3.6,1,7.8,1.5,12.6,1.5c7.1,0,13.2-0.8,18.3-2.3v-90.4
		c1.5-0.3,3.3-0.5,5.1-0.6c1.9-0.1,3.6-0.2,5.1-0.2c1.5,0,3.3,0.1,5.1,0.2c1.9,0.1,3.6,0.4,5.1,0.6v104.3c-4.9,1.4-10.7,2.7-17.5,4
		c-6.8,1.3-13.8,1.9-21.1,1.9c-6.9,0-13.3-0.6-19.4-1.8c-6.1-1.2-11.4-3.6-16-7.2c-4.6-3.6-8.3-8.7-10.9-15.3c-2.7-6.6-4-15.2-4-26
		V110.8z"/>
	<path class="st0" d="M365.9,147.5c0-8.2-2.1-14-6.3-17.2c-4.2-3.2-10.3-4.8-18.3-4.8c-4.9,0-9.5,0.4-13.7,1.2
		c-4.3,0.8-8.4,1.8-12.5,3c-2.7-4.6-4-10.1-4-16.6c4.8-1.5,10-2.7,15.7-3.6c5.7-0.8,11.3-1.3,16.6-1.3c14,0,24.6,3.2,31.9,9.5
		c7.3,6.4,10.9,16.5,10.9,30.5v67.3c-4.9,1.1-10.8,2.3-17.8,3.5c-7,1.2-14.1,1.8-21.4,1.8c-6.9,0-13-0.6-18.6-1.9
		c-5.5-1.3-10.2-3.3-14.1-6.1c-3.8-2.8-6.8-6.4-8.9-10.7c-2.1-4.3-3.1-9.6-3.1-15.7c0-6,1.2-11.3,3.7-15.8c2.4-4.5,5.8-8.3,10-11.3
		c4.2-3,9-5.2,14.5-6.7c5.5-1.5,11.2-2.2,17.2-2.2c4.5,0,8.1,0.1,11,0.3c2.9,0.2,5.3,0.5,7.2,0.7V147.5z M365.9,167.9
		c-2.1-0.3-4.8-0.6-8-0.8c-3.2-0.3-5.9-0.4-8.2-0.4c-8.7,0-15.3,1.6-19.8,4.8c-4.5,3.2-6.8,8.1-6.8,14.7c0,4.2,0.8,7.5,2.3,9.9
		c1.5,2.4,3.5,4.2,5.8,5.5c2.3,1.3,4.9,2,7.7,2.3c2.8,0.3,5.5,0.4,8,0.4c3.2,0,6.5-0.2,10-0.5c3.4-0.3,6.5-0.9,9.1-1.6V167.9z"/>
	<path class="st0" d="M413.3,127.2h-13.6c-0.3-1.1-0.5-2.4-0.6-3.9c-0.1-1.5-0.2-2.9-0.2-4.3c0-1.4,0.1-2.8,0.2-4.3
		c0.1-1.5,0.3-2.8,0.6-3.9h34v107.6c-1.5,0.3-3.3,0.5-5.1,0.6c-1.9,0.1-3.6,0.2-5.1,0.2c-1.4,0-3-0.1-4.9-0.2
		c-1.9-0.1-3.6-0.3-5.1-0.6V127.2z"/>
	<path class="st0" d="M457,110.8c1.5-0.3,3-0.5,4.4-0.6c1.4-0.1,2.9-0.2,4.4-0.2c1.5,0,3.1,0.1,4.6,0.2c1.5,0.1,2.9,0.4,4.2,0.6
		c0.4,2.1,0.8,4.9,1.3,8.3c0.4,3.4,0.6,6.3,0.6,8.7c2.9-4.8,6.8-8.9,11.6-12.4c4.8-3.5,11-5.2,18.6-5.2c1.1,0,2.3,0,3.5,0.1
		c1.2,0.1,2.2,0.2,3,0.3c0.3,1.3,0.5,2.6,0.6,4c0.1,1.4,0.2,2.9,0.2,4.4c0,1.7-0.1,3.4-0.3,5.2c-0.2,1.8-0.5,3.6-0.7,5.2
		c-1.1-0.3-2.3-0.4-3.5-0.4c-1.2,0-2.1,0-2.8,0c-3.8,0-7.4,0.5-10.8,1.6c-3.4,1.1-6.5,2.9-9.2,5.6c-2.7,2.7-4.9,6.3-6.5,10.9
		c-1.6,4.6-2.4,10.6-2.4,17.8v53.5c-1.5,0.3-3.3,0.5-5.1,0.6c-1.9,0.1-3.6,0.2-5.1,0.2c-1.5,0-3.3-0.1-5.1-0.2
		c-1.9-0.1-3.7-0.3-5.4-0.6V110.8z"/>
	<path class="st0" d="M536.9,169.7c0.3,11.8,3.3,20.3,9.1,25.8c5.8,5.5,14.4,8.2,25.7,8.2c9.9,0,19.4-1.7,28.3-5.2
		c1.1,2.1,2,4.6,2.7,7.7c0.7,3,1.1,6,1.3,8.9c-4.6,2-9.7,3.4-15.2,4.4c-5.5,1-11.6,1.5-18.4,1.5c-9.8,0-18.2-1.4-25.2-4.1
		c-7-2.7-12.8-6.6-17.3-11.5c-4.5-5-7.9-10.8-10-17.6c-2.1-6.8-3.1-14.2-3.1-22.3c0-8,1-15.4,3-22.3c2-6.9,5.1-12.9,9.3-18
		c4.2-5.1,9.5-9.2,15.8-12.2c6.4-3,13.9-4.5,22.6-4.5c7.4,0,13.9,1.3,19.5,3.8c5.6,2.5,10.3,6,14.1,10.4c3.8,4.4,6.6,9.7,8.6,15.7
		c2,6.1,2.9,12.7,2.9,19.8c0,2-0.1,4-0.2,6.2c-0.1,2.2-0.3,4-0.4,5.6H536.9z M590.2,154.2c0-3.9-0.5-7.7-1.6-11.2
		c-1.1-3.6-2.6-6.7-4.6-9.3c-2-2.7-4.6-4.8-7.8-6.4c-3.1-1.6-6.9-2.4-11.2-2.4c-8.5,0-15.1,2.6-19.6,7.8c-4.5,5.2-7.3,12.4-8.3,21.6
		H590.2z"/>
	<path class="st1" d="M166.4,27.5c0,0,0.4,0.3,0.6,0.5c0.3,0.2,0.6,0.4,0.9,0.6c0.6,0.4,1.3,0.8,2,1.1c1.4,0.7,2.8,1.4,4.3,2
		c3,1.2,6.1,2.2,9.3,3c6.4,1.5,13.1,2.4,19.8,2.8c13.4,0.7,27-0.6,40.3-2.7c6.7-1.2,13.3-2.5,19.9-4.2c6.6-1.5,13.2-3.4,19.6-5.5
		c6.5-2,12.9-4.2,19.3-6.5c6.5-2.3,13.3-4.8,20.1-6.7c13.7-4,27.9-6.7,42.5-8.1c7.3-0.5,14.6-0.8,22-0.5c7.4,0.2,14.8,1,22.2,2.2
		c14.8,2.5,29.5,7,43.5,13.6c7,3.3,13.8,7.2,20.3,11.6c3.3,2.2,6.5,4.6,9.7,7.1c1.6,1.3,3.2,2.6,4.8,4c0.8,0.7,1.6,1.4,2.4,2.2
		l1.2,1.2l0.7,0.7l0.3,0.4l0.5,0.6c6.8,9,5,21.9-4,28.7c-9,6.8-21.9,5-28.7-4c0,0,0.1,0.1,0.1,0.1l-0.1-0.1c0-0.1-0.1-0.2-0.2-0.3
		c-0.1-0.2-0.3-0.5-0.4-0.7c-0.3-0.5-0.7-1.1-1.1-1.6c-0.8-1.1-1.6-2.2-2.5-3.3c-1.8-2.2-3.7-4.4-5.8-6.5
		c-4.1-4.3-8.8-8.2-13.7-11.7c-4.9-3.6-10.3-6.7-15.8-9.5c-5.5-2.8-11.3-5.3-17.3-7.1c-24-7.9-50.9-8.4-77.1-3.6
		c-6.6,1.1-13,2.7-19.7,4.4c-6.8,1.8-13.5,3.4-20.4,4.9c-13.7,2.9-27.4,5.6-41.3,7.1c-6.9,0.9-13.9,1.4-21,1.7
		c-7,0.3-14.1,0.4-21.1-0.1c-7.1-0.5-14.1-1.2-21.2-2.8c-3.5-0.7-7-1.7-10.5-3c-1.7-0.6-3.5-1.3-5.2-2.1c-0.9-0.4-1.7-0.8-2.6-1.3
		c-0.4-0.2-0.9-0.5-1.3-0.7c-0.5-0.3-0.8-0.5-1.5-1l-1.1-0.9c-2.1-1.6-2.5-4.5-0.9-6.6c1.6-2.1,4.5-2.5,6.6-0.9
		C165.7,26.6,166.1,27,166.4,27.5z"/>
	<path class="st2" d="M216.6,61.2c0.1,0,0.7,0.1,1.2,0.2c0.5,0.1,1,0.1,1.5,0.2c1,0.1,2.1,0.2,3.2,0.2c2.2,0,4.4,0,6.6-0.1
		c4.4-0.3,8.9-0.6,13.3-1.3c8.9-1.2,17.8-3,26.6-5c4.4-1.1,8.8-2.3,13.1-3.4c4.4-1.1,8.7-2.4,13-3.8l13.1-4
		c4.5-1.4,9.1-2.6,13.8-3.7c18.6-4.1,38.4-5.7,58.4-2.5c10,1.6,19.9,4.4,29.6,8.6c4.8,2.1,9.5,4.6,14.2,7.4c2.3,1.4,4.6,3,6.9,4.7
		c1.1,0.8,2.3,1.7,3.4,2.7c0.6,0.5,1.2,1,1.8,1.5l0.9,0.9l0.5,0.5c0.2,0.2,0.3,0.3,0.7,0.7c6.1,7.6,4.9,18.6-2.7,24.7
		c-7.6,6.1-18.6,4.9-24.7-2.7c0.2,0.2,0.1,0.1,0.1,0.1c0,0,0-0.1-0.1-0.1c-0.1-0.1-0.1-0.2-0.2-0.4c-0.2-0.3-0.4-0.6-0.6-1
		c-0.5-0.7-1-1.3-1.5-2c-1.1-1.4-2.3-2.7-3.7-4c-2.6-2.7-5.6-5.1-8.8-7.4c-3.2-2.3-6.6-4.3-10.2-6.1c-3.6-1.8-7.3-3.5-11.2-4.7
		c-7.7-2.7-16-4.4-24.4-5.2c-8.5-0.8-17.1-0.8-25.8,0.2c-4.3,0.5-8.7,1-13,1.8c-4.3,0.7-9,1.6-13.5,2.5c-2.3,0.4-4.5,0.9-6.8,1.2
		c-2.3,0.4-4.6,0.7-6.8,1.1c-4.5,0.8-9.1,1.6-13.6,2.3c-9.1,1.5-18.2,2.8-27.4,3.8c-4.6,0.5-9.2,1-13.9,1.2
		c-2.3,0.1-4.7,0.2-7.1,0.3c-1.2,0-2.4,0-3.6,0c-0.6,0-1.2-0.1-1.9-0.1c-0.7-0.1-1.2-0.1-2.2-0.3l-1-0.2c-2.5-0.5-4.2-2.9-3.8-5.4
		c0.5-2.5,2.9-4.2,5.4-3.8C215.8,60.9,216.3,61,216.6,61.2z"/>
	<g>
		<path class="st3" d="M265.5,279l-7.7-0.9v-11l7.7,0.9v-14.5h11v14.5l7.7-0.9v11l-7.7,0.9v20.4v4.1c0,2.2,0.5,3.8,1.5,4.7
			c0.7,0.6,1.8,0.9,3.3,0.9h2.9v11h-2.9c-4.7,0-8.5-1.5-11.4-4.6c-2.9-3.1-4.3-7-4.3-12v-4.1V279z"/>
		<path class="st3" d="M325.8,320.1h-10.9v-52.9h10.9v4.4c2.2-1.8,4.8-3.1,7.9-3.8l0.5-0.1c1.7-0.3,3.5-0.5,5.4-0.5v11
			c-5.1,0-8.9,1.7-11.2,5.1c-1.8,2.6-2.6,6.1-2.6,10.4V320.1z"/>
		<path class="st3" d="M402.1,267.2h11v52.9h-11v-4.4c-2.2,1.8-4.8,3.1-7.8,3.8l-0.6,0.1c-1.7,0.3-3.5,0.5-5.4,0.5
			c-1.9,0-3.7-0.2-5.4-0.5l-0.6-0.1c-5.8-1.2-10.4-4.1-13.7-8.7c-3.4-4.6-5.1-10.3-5.1-17.2c0-6.9,1.7-12.7,5.1-17.3
			c3.4-4.6,8-7.4,13.9-8.6l0.5-0.2c1.7-0.3,3.4-0.4,5.3-0.4s3.6,0.1,5.3,0.4l0.5,0.2c3.1,0.6,5.8,1.9,8,3.8V267.2z M402.1,293.6
			c0-4.4-0.9-7.8-2.6-10.4c-2.3-3.4-6-5.1-11.2-5.1c-5.2,0-8.9,1.7-11.2,5.1c-1.7,2.6-2.6,6.1-2.6,10.5c0,4.4,0.9,7.8,2.6,10.4
			c2.3,3.4,6,5.1,11.2,5.1c5.1,0,8.9-1.7,11.2-5.1c1.8-2.6,2.6-6.1,2.6-10.4V293.6z"/>
		<path class="st3" d="M489.9,267.2l-19.2,52.9h-11.7l-19-52.9h11.6L465,304l13.3-36.8H489.9z"/>
		<path class="st3" d="M561.8,298.4h-38.1c1.4,7.2,6,10.8,13.9,10.8c3.2,0,6-0.6,8.4-1.8c2.4-1.2,4.1-2.9,5.1-5l9.8,4.8
			c-2,4.1-5,7.2-9.2,9.5c-4.1,2.3-8.9,3.5-14.2,3.5c-7.7,0-13.8-2.4-18.4-7.2c-4.6-4.8-6.9-11.2-6.9-19.3c0-8.1,2.2-14.5,6.7-19.3
			c4.5-4.8,10.5-7.2,18-7.2c6.6,0,12,1.9,16.3,5.6c4.3,3.7,7,8.8,8,15.3c0.3,1.7,0.4,3.4,0.4,5.1v0.5V298.4z M550.2,288
			c-1.5-6.6-6-9.9-13.2-9.9s-11.7,3.3-13.2,9.9H550.2z"/>
		<path class="st3" d="M603.5,253.6v66.5h-10.9v-66.5H603.5z"/>
	</g>
	<path class="st0" d="M66.5,147.5c0-8.2-2.1-14-6.3-17.2c-4.2-3.2-10.3-4.8-18.3-4.8c-4.9,0-9.5,0.4-13.7,1.2
		c-4.3,0.8-8.4,1.8-12.5,3c-2.7-4.6-4-10.1-4-16.6c4.8-1.5,10-2.7,15.7-3.6c5.7-0.8,11.3-1.3,16.6-1.3c14,0,24.6,3.2,31.9,9.5
		c7.3,6.4,10.9,16.5,10.9,30.5v67.3C82,216.8,76,218,69,219.1c-7,1.2-14.1,1.8-21.4,1.8c-6.9,0-13-0.6-18.6-1.9
		c-5.5-1.3-10.2-3.3-14.1-6.1c-3.8-2.8-6.8-6.4-8.9-10.7C4,197.9,3,192.7,3,186.5c0-6,1.2-11.3,3.7-15.8c2.4-4.5,5.8-8.3,10-11.3
		c4.2-3,9-5.2,14.5-6.7c5.5-1.5,11.2-2.2,17.2-2.2c4.5,0,8.1,0.1,11,0.3c2.9,0.2,5.3,0.5,7.2,0.7V147.5z M66.5,167.9
		c-2.1-0.3-4.8-0.6-8-0.8c-3.2-0.3-5.9-0.4-8.2-0.4c-8.7,0-15.3,1.6-19.8,4.8c-4.5,3.2-6.8,8.1-6.8,14.7c0,4.2,0.8,7.5,2.3,9.9
		c1.5,2.4,3.5,4.2,5.8,5.5c2.3,1.3,4.9,2,7.7,2.3c2.8,0.3,5.5,0.4,8,0.4c3.2,0,6.5-0.2,10-0.5c3.4-0.3,6.5-0.9,9.1-1.6V167.9z"/>
</g>
</svg>
