<svg xmlns="http://www.w3.org/2000/svg" width="20" height="22" viewBox="0 0 20 22">
    <path d="M10 18a1 1 0 1 0-1-1 1 1 0 0 0 1 1zm5 0a1 1 0 1 0-1-1 1 1 0 0 0 1 1zm0-4a1 1 0 1 0-1-1 1 1 0 0 0 1 1zm-5 0a1 1 0 1 0-1-1 1 1 0 0 0 1 1zm7-12h-1V1a1 1 0 0 0-2 0v1H6V1a1 1 0 0 0-2 0v1H3a3 3 0 0 0-3 3v14a3 3 0 0 0 3 3h14a3 3 0 0 0 3-3V5a3 3 0 0 0-3-3zm1 17a1 1 0 0 1-1 1H3a1 1 0 0 1-1-1v-9h16zm0-11H2V5a1 1 0 0 1 1-1h1v1a1 1 0 0 0 2 0V4h8v1a1 1 0 0 0 2 0V4h1a1 1 0 0 1 1 1zM5 14a1 1 0 1 0-1-1 1 1 0 0 0 1 1zm0 4a1 1 0 1 0-1-1 1 1 0 0 0 1 1z" data-name="calendar-alt (3)"/>
</svg>
