<svg id="Layer_1" data-name="Layer 1" xmlns="http://www.w3.org/2000/svg" xmlns:xlink="http://www.w3.org/1999/xlink" viewBox="0 0 200 200"><defs><style>.cls-1{fill:none;}.cls-2{clip-path:url(#clip-path);}.cls-3{fill:#1a2679;}.cls-4{fill:#fff;}.cls-5{fill:#b30000;}.cls-6{fill:#00ccb3;}.cls-7{fill:#ffbe3b;}</style><clipPath id="clip-path"><circle class="cls-1" cx="178.65" cy="91.44" r="15.03"/></clipPath></defs><g id="Grupo_179" data-name="Grupo 179"><g id="Grupo_164" data-name="Grupo 164"><g class="cls-2"><g id="Grupo_163" data-name="Grupo 163"><g id="Grupo_158" data-name="Grupo 158"><rect id="Rectángulo_295" data-name="Rectángulo 295" class="cls-3" x="159.33" y="76.41" width="45.09" height="6.44"/></g><g id="Grupo_159" data-name="Grupo 159"><rect id="Rectángulo_296" data-name="Rectángulo 296" class="cls-4" x="159.33" y="82.85" width="45.09" height="4.29"/></g><g id="Grupo_160" data-name="Grupo 160"><rect id="Rectángulo_297" data-name="Rectángulo 297" class="cls-5" x="159.33" y="87.14" width="45.09" height="8.59"/></g><g id="Grupo_161" data-name="Grupo 161"><rect id="Rectángulo_298" data-name="Rectángulo 298" class="cls-3" x="152.89" y="100.03" width="51.53" height="6.44"/></g><g id="Grupo_162" data-name="Grupo 162"><rect id="Rectángulo_299" data-name="Rectángulo 299" class="cls-4" x="157.18" y="95.73" width="47.23" height="4.29"/></g></g></g></g><g id="Grupo_165" data-name="Grupo 165"><circle id="Elipse_78" data-name="Elipse 78" class="cls-6" cx="112.4" cy="64.19" r="44.9"/></g><g id="Grupo_166" data-name="Grupo 166"><path id="Trazado_600" data-name="Trazado 600" class="cls-6" d="M180.57,183.55H38.36c0-2.15,0-5.24,0-6.12,1.16-40.42,28.66-72.89,71.06-72.89,43,0,69.93,32.54,71.07,73C180.56,178.38,180.57,181.4,180.57,183.55Z"/></g><g id="Grupo_167" data-name="Grupo 167"><path id="Trazado_601" data-name="Trazado 601" class="cls-3" d="M190.86,181.4H145.28a2.15,2.15,0,1,1,0-4.29h43.43c0-1,0-2.11,0-2.53C187.51,133.05,159.17,104,119.76,104s-67.73,29-68.92,70.59c0,.42,0,1.49,0,2.49H98a2.15,2.15,0,0,1,0,4.3H48.65a2.15,2.15,0,0,1-2.15-2.15h0s0-3.86,0-4.75c1.26-44,31.37-74.76,73.21-74.76s72,30.73,73.21,74.73c0,.89,0,4.79,0,4.79a2.15,2.15,0,0,1-2.14,2.15h0Z"/></g><g id="Grupo_171" data-name="Grupo 171"><g id="Grupo_168" data-name="Grupo 168"><circle id="Elipse_79" data-name="Elipse 79" class="cls-3" cx="108.9" cy="179.55" r="2.32"/></g><g id="Grupo_169" data-name="Grupo 169"><circle id="Elipse_80" data-name="Elipse 80" class="cls-3" cx="121.7" cy="179.55" r="2.32"/></g><g id="Grupo_170" data-name="Grupo 170"><circle id="Elipse_81" data-name="Elipse 81" class="cls-3" cx="133.85" cy="179.55" r="2.32"/></g></g><g id="Grupo_176" data-name="Grupo 176"><g id="Grupo_172" data-name="Grupo 172"><path id="Trazado_602" data-name="Trazado 602" class="cls-4" d="M14.05,136.7c-3.65-8.36-6.13-16.13-6.13-21.59,0-19.63,12.74-40.63,35.54-40.63,23.16,0,35.54,21,35.54,40.63s-30.76,68.94-35.54,68.94c-2,0-12.21-14.46-21.2-30.83Z"/></g><g id="Grupo_173" data-name="Grupo 173"><path id="Trazado_603" data-name="Trazado 603" class="cls-7" d="M6,131.69c-3.65-8.36-6.12-16.13-6.12-21.6,0-19.62,12.73-40.62,35.53-40.62,23.16,0,35.54,21,35.54,40.62S40.22,179,35.44,179c-1.95,0-12.21-14.45-21.2-30.83Z"/></g><g id="Grupo_174" data-name="Grupo 174"><path id="Trazado_604" data-name="Trazado 604" class="cls-3" d="M43.46,186.19c-5.39,0-22.91-31.62-23.09-31.94l-8.25-16.6,0-.1C7.9,128,5.77,120.41,5.77,115.1c0-21,14.1-42.77,37.68-42.77,24.48,0,37.69,22,37.69,42.77C81.14,133.38,51.33,186.19,43.46,186.19ZM16,135.8l8.18,16.46c8.44,15.36,16.78,26.93,19.41,29.37,6.36-4.77,33.26-48.91,33.26-66.52,0-18.66-11.7-38.48-33.39-38.48-16.19,0-33.39,13.48-33.39,38.48,0,4.64,2,11.79,5.92,20.69Z"/></g><g id="Grupo_175" data-name="Grupo 175"><circle id="Elipse_82" data-name="Elipse 82" class="cls-4" cx="43.65" cy="115.89" r="16.11"/><path id="Trazado_605" data-name="Trazado 605" class="cls-3" d="M43.65,134.14a18.25,18.25,0,1,1,18.26-18.25A18.28,18.28,0,0,1,43.65,134.14Zm0-32.21a14,14,0,1,0,14,14A14,14,0,0,0,43.65,101.93Z"/></g></g><g id="Grupo_177" data-name="Grupo 177"><path id="Trazado_606" data-name="Trazado 606" class="cls-3" d="M121.18,100.64A43.42,43.42,0,1,1,164.6,57.23,43.46,43.46,0,0,1,121.18,100.64Zm0-82.53A39.12,39.12,0,1,0,160.3,57.23a39.17,39.17,0,0,0-39.12-39.12Z"/></g><g id="Grupo_178" data-name="Grupo 178"><path id="Trazado_607" data-name="Trazado 607" class="cls-3" d="M178.65,112.79A21.36,21.36,0,1,1,200,91.44,21.37,21.37,0,0,1,178.65,112.79Zm0-39.06a17.71,17.71,0,1,0,17.7,17.71A17.74,17.74,0,0,0,178.65,73.73Z"/></g></g></svg>