<svg xmlns="http://www.w3.org/2000/svg" width="78.375" height="78.31" viewBox="0 0 78.375 78.31">
    <defs>
        <style>
            .cls-1{fill:#37474f}.cls-2{fill:#607d8b}.cls-3{fill:#802f34}.cls-4{fill:#fec108}.cls-5{fill:#ffdc00}.cls-6{fill:#6d4122}.cls-7{fill:#91562d}.cls-8{fill:#ff9801}.cls-9{fill:#f44335}.cls-10{fill:#c81e1e}.cls-11{fill:#c03a2b}.cls-12{fill:#cfd8dc}.cls-13{fill:#f5f5f5}
        </style>
    </defs>
    <g id="_048---Hot-Air-Balloon" data-name="048---Hot-Air-Balloon" transform="translate(-.93 -1.98)">
        <g id="Icons" transform="translate(2.347 2.326)">
            <path id="Shape" d="M57.485 26.168c-1.55 8.532-7.092 18.052-13.111 23.826-.216 0-4.909 5.311-10.05 5.311-6.265 0-13-7.86-16.508-13.257l-6.627-15.734a22.227 22.227 0 0 1-.116-8.158A19.751 19.751 0 0 1 22.311 3.362 29.955 29.955 0 0 1 34.324 1a26.672 26.672 0 0 1 12.013 2.362 18.968 18.968 0 0 1 8.719 7.946z" class="cls-1" transform="translate(3.488 -.985)"/>
            <path id="Shape-2" d="M54.7 26.163c-1.589 8.529-7.271 18.052-13.443 23.826h-.013a19.792 19.792 0 0 1-8.3 5.059C27.108 53.65 21.319 47.027 18 42.043c-6.891-15.95-6.8-15.615-6.8-15.743a21.164 21.164 0 0 1-.119-8.145C13.4 7.067 22.075 1.434 32.922 1c7.781.311 15.334 3.473 19.283 10.3z" class="cls-2" data-name="Shape" transform="translate(2.974 -.981)"/>
            <path id="Shape-3" d="M38.432 2.69a1.192 1.192 0 0 1-.132.119z" class="cls-3" data-name="Shape" transform="translate(11.643 -.432)"/>
            <path id="Shape-4" d="M38.893 51v7.946a2.657 2.657 0 0 1-2.649 2.654h-10.6A2.657 2.657 0 0 1 23 58.946V51z" class="cls-4" data-name="Shape" transform="translate(6.87 14.059)"/>
            <path id="Shape-5" d="M34.92 51v7.946a2.657 2.657 0 0 1-2.649 2.654h-6.622A2.657 2.657 0 0 1 23 58.946V51z" class="cls-5" data-name="Shape" transform="translate(6.907 14.059)"/>
            <path id="Shape-6" d="M42.19 49.649a2.655 2.655 0 0 1-2.648 2.651H23.649a2.649 2.649 0 1 1 0-5.3h15.893a2.657 2.657 0 0 1 2.648 2.649z" class="cls-6" data-name="Shape" transform="translate(6.222 12.761)"/>
            <path id="Shape-7" d="M38.217 49.649a2.655 2.655 0 0 1-2.649 2.651H23.649a2.649 2.649 0 1 1 0-5.3h11.92a2.657 2.657 0 0 1 2.648 2.649z" class="cls-7" data-name="Shape" transform="translate(6.261 12.761)"/>
            <path id="Shape-8" d="M44.334 3.362c-4.283 3.838-20.263 3.926-24.634 0A28.373 28.373 0 0 1 32.017 1a27.945 27.945 0 0 1 12.317 2.362z" class="cls-8" data-name="Shape" transform="translate(5.8 -.985)"/>
            <path id="Shape-9" d="M57.485 25.586c-1.55 8.529-7.092 18.052-13.111 23.826h-.013c-2.808-2.258-8.068-2.817-11.923-2.569H32.4a.024.024 0 0 1-.039 0 19.81 19.81 0 0 0-5.025 1.007 9.142 9.142 0 0 0-3.061 1.563 45.516 45.516 0 0 1-6.459-7.946l-6.627-15.735a22.226 22.226 0 0 1-.116-8.158A19.767 19.767 0 0 1 22.311 2.78c4.384 4 19.968 3.794 24.026 0a18.968 18.968 0 0 1 8.719 7.946z" class="cls-9" data-name="Shape" transform="translate(3.488 -.403)"/>
            <path id="Shape-10" d="M50.852 25.586c-1.589 8.529-7.271 18.052-13.443 23.826H37.4a10.011 10.011 0 0 0-2.556-1.391c5.615-5.827 10.569-14.555 12.039-22.435l-2.49-14.86a18.645 18.645 0 0 0-6.781-6.807 6.99 6.99 0 0 0 1.81-1.139 19.279 19.279 0 0 1 8.94 7.946z" class="cls-10" data-name="Shape" transform="translate(10.405 -.403)"/>
            <path id="Shape-11" d="M38.432 2.69a1.192 1.192 0 0 1-.132.119z" class="cls-11" data-name="Shape" transform="translate(11.643 -.432)"/>
            <path id="Shape-12" d="M19.732 2.809a1.192 1.192 0 0 1-.132-.119z" class="cls-11" data-name="Shape" transform="translate(5.958 -.432)"/>
            <path id="Shape-13" d="M26.488 30.592a5.3 5.3 0 0 1-5.3 5.3H5.3a5.3 5.3 0 1 1 0-10.6 2.569 2.569 0 0 1 .45.026 7.946 7.946 0 0 1 14.992 0 2.569 2.569 0 0 1 .45-.026 5.306 5.306 0 0 1 5.296 5.3z" class="cls-12" data-name="Shape" transform="translate(0 4.699)"/>
            <path id="Shape-14" d="M64.506 18.592a5.3 5.3 0 0 1-5.3 5.3h-15.89a5.3 5.3 0 1 1 .45-10.569 7.946 7.946 0 0 1 14.992 0 5.286 5.286 0 0 1 5.748 5.271z" class="cls-12" data-name="Shape" transform="translate(11.128 1.294)"/>
            <g id="Group_171" data-name="Group 171" transform="translate(0 9.542)">
                <path id="Shape-15" d="M22.515 30.534a5.3 5.3 0 0 1-5.3 5.3H5.3a5.3 5.3 0 1 1 0-10.6 2.569 2.569 0 0 1 .45.026 7.969 7.969 0 0 1 5.509-5.072 7.969 7.969 0 0 1 5.509 5.072 2.569 2.569 0 0 1 .45-.026 5.306 5.306 0 0 1 5.297 5.3z" class="cls-13" data-name="Shape" transform="translate(0 -4.297)"/>
                <path id="Shape-16" d="M60.533 18.534a5.3 5.3 0 0 1-5.3 5.3H43.316a5.3 5.3 0 1 1 .45-10.569 7.969 7.969 0 0 1 5.509-5.075 7.969 7.969 0 0 1 5.509 5.072 5.286 5.286 0 0 1 5.748 5.271z" class="cls-13" data-name="Shape" transform="translate(11.128 -8.19)"/>
            </g>
        </g>
        <g id="Outline" transform="translate(.93 1.98)">
            <path id="Shape-17" d="M73.209 15.372A9.087 9.087 0 0 0 61.6 10.806a20.193 20.193 0 0 0-8.14-7.046A28.292 28.292 0 0 0 40.946.981c-1.5.017-.941 0-1.566 0a37.08 37.08 0 0 0-12.525 2.8 21.19 21.19 0 0 0-11.583 22.024 9.12 9.12 0 0 0-8.151 5.219 6.524 6.524 0 0 0 .424 13.038h15.277a46.639 46.639 0 0 0 6 7.167l2.29 10.009a3.893 3.893 0 0 0-.083 7.374v6.764a3.914 3.914 0 0 0 3.914 3.914h10.439a3.914 3.914 0 0 0 3.918-3.914v-6.764a3.893 3.893 0 0 0-.083-7.374l2.287-10a48.717 48.717 0 0 0 13.108-22.833h8.169a6.524 6.524 0 0 0 .428-13.033zM59.331 12.1a9.065 9.065 0 0 0-2.631 3.271 6.362 6.362 0 0 0-1.648.352 23.587 23.587 0 0 0-3.715-8.941 9.524 9.524 0 0 0 1.1-.626 17.649 17.649 0 0 1 6.894 5.944zM43.947 61.024l.834-5.036A19.9 19.9 0 0 0 48.2 54l-1.609 7.022zm-4.919 0l-.681-4.124a8.831 8.831 0 0 0 3.638 0l-.685 4.124zm-5.285 0L32.136 54a19.9 19.9 0 0 0 3.414 1.986l.828 5.036zM49.208 4.862a30.732 30.732 0 0 1-18.093 0 31.9 31.9 0 0 1 18.093 0zM31.543 7.749a30.852 30.852 0 0 0 7.316 1.063v37.907a23.538 23.538 0 0 0-5.112.775 55.956 55.956 0 0 1-4.036-9.81 6.349 6.349 0 0 0-1.054-3.711 42.046 42.046 0 0 1-1.343-14.6c.625-5.011 2.052-8.906 4.229-11.62zm-3.267 33.834a56.172 56.172 0 0 0 2.972 6.772 11.35 11.35 0 0 0-1.061.544 43.717 43.717 0 0 1-4.521-5.332 6.543 6.543 0 0 0 2.61-1.984zM40.163 54.5c-2.247 0-5.023-1.314-7.93-3.724a22.2 22.2 0 0 1 15.863 0c-2.907 2.41-5.685 3.724-7.933 3.724zm6.393-7.019a23.925 23.925 0 0 0-5.088-.762V8.812A30.877 30.877 0 0 0 48.8 7.744a21.315 21.315 0 0 1 3.861 9.415 6.435 6.435 0 0 0 .283 9.692 59.793 59.793 0 0 1-6.388 20.63zm-28.6-28.007a18.238 18.238 0 0 1 9.952-13.309 9.437 9.437 0 0 0 1.079.613 26.405 26.405 0 0 0-4.261 12.264 40.768 40.768 0 0 0 .694 12.395 6.406 6.406 0 0 0-1.79-.4 9.121 9.121 0 0 0-5.674-4.861 18.943 18.943 0 0 1 0-6.7zM3.631 37.539a3.921 3.921 0 0 1 4.02-3.914.731.731 0 0 1 .108 0 1.3 1.3 0 0 0 1.463-.857 6.524 6.524 0 0 1 12.3 0 1.343 1.343 0 0 0 1.46.857.817.817 0 0 1 .114 0 3.915 3.915 0 0 1 .1 7.828H7.545a3.914 3.914 0 0 1-3.914-3.914zm43.056 37.837a1.3 1.3 0 0 1-1.3 1.3H34.944a1.3 1.3 0 0 1-1.3-1.3v-6.524h13.043zm1.3-9.133H32.335a1.3 1.3 0 0 1 0-2.609h15.657a1.3 1.3 0 0 1 0 2.609zm2.157-17.333a11.8 11.8 0 0 0-1.105-.566 63.164 63.164 0 0 0 6.372-20.2c1.181.324 1.076.261 6.524.261a46.2 46.2 0 0 1-11.791 20.5zM72.781 25.8H57.125a3.862 3.862 0 0 1-2.158-.652 3.922 3.922 0 0 1 2.264-7.176.731.731 0 0 1 .108 0 1.3 1.3 0 0 0 1.461-.862 6.524 6.524 0 0 1 12.3 0 1.343 1.343 0 0 0 1.46.857 1.5 1.5 0 0 1 .217 0 3.914 3.914 0 0 1 0 7.828z" data-name="Shape" transform="translate(-.93 -.98)"/>
            <path id="Shape-18" d="M15.6 43.649a1.324 1.324 0 1 0 0-2.649H6.324a1.324 1.324 0 1 0 0 2.649z" data-name="Shape" transform="translate(.39 11.188)"/>
            <path id="Shape-19" d="M19.973 43.649a1.324 1.324 0 1 0 0-2.649h-2.649a1.324 1.324 0 1 0 0 2.649z" data-name="Shape" transform="translate(3.641 11.188)"/>
            <path id="Shape-20" d="M1 46.324a1.324 1.324 0 0 0 1.324 1.324h15.893a1.324 1.324 0 0 0 0-2.649H2.324A1.324 1.324 0 0 0 1 46.324z" data-name="Shape" transform="translate(-.907 12.404)"/>
            <path id="Shape-21" d="M56.6 43.649a1.324 1.324 0 1 0 0-2.649h-9.276a1.324 1.324 0 0 0 0 2.649z" data-name="Shape" transform="translate(12.509 11.188)"/>
            <path id="Shape-22" d="M60.973 41h-2.649a1.324 1.324 0 1 0 0 2.649h2.649a1.324 1.324 0 0 0 0-2.649z" data-name="Shape" transform="translate(16.077 11.188)"/>
            <path id="Shape-23" d="M42 46.324a1.324 1.324 0 0 0 1.324 1.324h15.893a1.324 1.324 0 0 0 0-2.649H43.324A1.324 1.324 0 0 0 42 46.324z" data-name="Shape" transform="translate(11.211 12.404)"/>
        </g>
    </g>
</svg>
