<svg xmlns="http://www.w3.org/2000/svg" width="78.752" height="76.572" viewBox="0 0 78.752 76.572">
    <defs>
        <style>
            .cls-1{fill:#d3d3d3}.cls-2{fill:#4ebe80}.cls-3{fill:#62beff}.cls-4{fill:#ffcb5a}.cls-5{fill:#00448f}.cls-6{fill:#ababab}.cls-7{fill:#ebbb53}.cls-8{fill:#46ab74}.cls-9{fill:#ffbd49}.cls-10{fill:#ffdb6f}.cls-11{fill:#fb5968}
        </style>
    </defs>
    <g id="partido" transform="translate(0 -7.085)">
        <path id="Path_349" d="M70.021 256.026h-2.565v-3.846a11.555 11.555 0 0 0-11.541-11.541v-2.565a14.122 14.122 0 0 1 14.105 14.105v3.847z" class="cls-1" data-name="Path 349" transform="translate(-47.315 -195.46)"/>
        <path id="Path_350" d="M454.383 21.175V34l-7.694-6.412-.192-.308a54.56 54.56 0 0 0 7.861-6.129z" class="cls-2" data-name="Path 350" transform="translate(-377.82 -11.901)"/>
        <path id="Path_351" d="M405.139 61.307v11.541l-7.694-7.694-.051-.128A53.286 53.286 0 0 0 404.947 61z" class="cls-3" data-name="Path 351" transform="translate(-336.27 -45.621)"/>
        <path id="Path_352" d="M340.533 87.177l.051.128-1.284 11.541-8.976-7.694-.124-.652a54.316 54.316 0 0 0 10.333-3.323z" class="cls-4" data-name="Path 352" transform="translate(-279.409 -67.773)"/>
        <path id="Path_353" d="M225.085 108.769l.128.654-2.565 10.258-6.411-8.976-6.412 8.976-3.847-10.258a54.4 54.4 0 0 0 19.107-.654z" class="cls-3" data-name="Path 353" transform="translate(-174.297 -86.044)"/>
        <path id="Path_354" d="M149.684 99.406l-7.694 8.976-2.539-11.451a53.665 53.665 0 0 0 10.233 2.475z" class="cls-2" data-name="Path 354" transform="translate(-118.002 -76.027)"/>
        <path id="Path_355" d="M89.838 74.541l-7.63 7.63-1.282-11.541.074-.13a53.22 53.22 0 0 0 8.838 4.041z" class="cls-4" data-name="Path 355" transform="translate(-68.479 -53.663)"/>
        <path id="Path_356" d="M38.676 41.861l-.077.128-7.694 6.411V36.86l.167-.205a53.363 53.363 0 0 0 7.604 5.206z" class="cls-3" data-name="Path 356" transform="translate(-26.151 -25.022)"/>
        <g id="Group_172" data-name="Group 172" transform="translate(.453 7.538)">
            <path id="Path_357" d="M155.424 27.079a54.866 54.866 0 0 1-7.822-.56 54.419 54.419 0 0 1-10.353-2.5 4.545 4.545 0 0 1-.158-.06l.585-1.141-.292.571.192-.609.165.059a53.2 53.2 0 0 0 10.042 2.416 53.533 53.533 0 0 0 18.882-.648 53.671 53.671 0 0 0 10.214-3.281 53.017 53.017 0 0 0 7.464-3.975 54.149 54.149 0 0 0 7.767-6.058c.436-.4.864-.813 1.293-1.242l.908.908c-.444.442-.887.872-1.33 1.282a55.419 55.419 0 0 1-7.95 6.2 54.382 54.382 0 0 1-7.644 4.075 55.008 55.008 0 0 1-10.456 3.36 54.83 54.83 0 0 1-11.507 1.203z" class="cls-5" data-name="Path 357" transform="translate(-116.457 -10.042)"/>
            <path id="Path_358" d="M23.638 23.974a53.9 53.9 0 0 1-8.938-4.088A53.887 53.887 0 0 1 7 14.62a58.083 58.083 0 0 1-4.06-3.684l.908-.908a55.136 55.136 0 0 0 3.967 3.6 52.635 52.635 0 0 0 7.511 5.142 52.719 52.719 0 0 0 8.733 3.993z" class="cls-5" data-name="Path 358" transform="translate(-2.943 -10.028)"/>
        </g>
        <path id="Path_359" d="M159.948 348.547l-1.923-1.705 1.826-2.052a13.252 13.252 0 0 1 18.71-1.1q.29.258.564.532l-1.813 1.813a10.688 10.688 0 0 0-15.115 0q-.221.221-.43.455z" class="cls-1" data-name="Path 359" transform="translate(-133.719 -281.999)"/>
        <path id="Path_360" d="M190.354 213.639a18.4 18.4 0 0 0-.624-2.4l2.436-.81a21.166 21.166 0 0 1 .71 2.73z" class="cls-6" data-name="Path 360" transform="translate(-160.547 -172.067)"/>
        <path id="Path_361" d="M160.213 262.3l-1.813-1.813.374-.376a18.419 18.419 0 0 0 5.361-14.035l2.565-.144a20.99 20.99 0 0 1-6.111 15.993z" class="cls-1" data-name="Path 361" transform="translate(-134.036 -202.112)"/>
        <path id="Path_362" d="M226.909 269.609L225.1 267.8a15.81 15.81 0 0 1 3.462-2.619l1.245 2.243a13.266 13.266 0 0 0-2.898 2.185z" class="cls-6" data-name="Path 362" transform="translate(-190.473 -218.394)"/>
        <path id="Path_363" d="M280.342 258.532a13.191 13.191 0 0 0-13.418-3.237l-.786-2.436a15.73 15.73 0 0 1 16.017 3.864z" class="cls-1" data-name="Path 363" transform="translate(-225.203 -207.318)"/>
        <path id="Path_364" d="M343.854 229.737a12.823 12.823 0 0 1-12.823 12.823 12.823 12.823 0 0 1 12.823-12.823z" class="cls-7" data-name="Path 364" transform="translate(-280.114 -188.405)"/>
        <path id="Path_365" d="M105.936 329.78a12.823 12.823 0 0 1 12.823 12.82 12.823 12.823 0 0 1-12.823-12.82z" class="cls-8" data-name="Path 365" transform="translate(-89.642 -273.06)"/>
        <g id="Group_173" data-name="Group 173" transform="translate(9.883 56.719)">
            <path id="Path_366" d="M83.487 342.6H64.252l6.412-12.823A12.823 12.823 0 0 0 83.487 342.6z" class="cls-2" data-name="Path 366" transform="translate(-64.252 -329.779)"/>
            <path id="Path_367" d="M436.613 355.374l3.167 6.322-10.541-5.27z" class="cls-2" data-name="Path 367" transform="translate(-373.1 -351.437)"/>
        </g>
        <g id="Group_174" data-name="Group 174" transform="translate(6.677 54.155)">
            <path id="Path_368" d="M65.85 413.148l-12.823 6.412H43.41l3.206-6.412z" class="cls-3" data-name="Path 368" transform="translate(-43.41 -397.76)"/>
            <path id="Path_369" d="M389.983 313.106l3.244 6.5-7.373 1.051-7.886-3.95z" class="cls-3" data-name="Path 369" transform="translate(-326.509 -313.106)"/>
        </g>
        <g id="Group_175" data-name="Group 175" transform="translate(3.471 41.332)">
            <path id="Path_370" d="M35.391 454.833l-12.823 6.412 3.206-6.412z" class="cls-4" data-name="Path 370" transform="translate(-22.568 -420.21)"/>
            <path id="Path_371" d="M343.854 229.737l6.411 12.823-12.015 3.6-7.219-3.6a12.823 12.823 0 0 0 12.823-12.823z" class="cls-4" data-name="Path 371" transform="translate(-283.586 -229.737)"/>
        </g>
        <path id="Path_372" d="M351.551 179.119l-2.5-.586a10.821 10.821 0 0 1 1.258-3.094l2.2 1.321a8.263 8.263 0 0 0-.958 2.359z" class="cls-6" data-name="Path 372" transform="translate(-295.367 -142.459)"/>
        <path id="Path_373" d="M351.484 221.516l-1.125-1.125a10.814 10.814 0 0 1-3.179-7.449l2.565-.054a8.269 8.269 0 0 0 2.427 5.69l1.128 1.122z" class="cls-1" data-name="Path 373" transform="translate(-293.78 -174.149)"/>
        <g id="Group_176" data-name="Group 176" transform="translate(3.471 42.614)">
            <path id="Rectangle_153" d="M0 0h2.565v3.626H0z" class="cls-6" data-name="Rectangle 153" transform="rotate(135 18.035 21.21)"/>
            <path id="Rectangle_154" d="M0 0h2.565v2.565H0z" class="cls-6" data-name="Rectangle 154"/>
        </g>
        <g id="Group_177" data-name="Group 177" transform="translate(50.917 74.676)">
            <path id="Rectangle_155" d="M0 0h2.565v5.129H0z" class="cls-1" data-name="Rectangle 155" transform="translate(1.282)"/>
            <path id="Rectangle_156" d="M0 0h5.129v2.565H0z" class="cls-1" data-name="Rectangle 156" transform="translate(0 1.282)"/>
        </g>
        <g id="Group_178" data-name="Group 178" transform="translate(26.553 7.992)">
            <path id="Rectangle_157" d="M0 0h2.565v5.129H0z" class="cls-9" data-name="Rectangle 157" transform="translate(1.282)"/>
            <path id="Rectangle_158" d="M0 0h5.129v2.565H0z" class="cls-9" data-name="Rectangle 158" transform="translate(0 1.282)"/>
        </g>
        <g id="Group_179" data-name="Group 179" transform="translate(.907 27.226)">
            <path id="Rectangle_159" d="M0 0h7.694v2.565H0z" class="cls-10" data-name="Rectangle 159" transform="translate(0 2.565)"/>
            <path id="Rectangle_160" d="M0 0h2.565v7.694H0z" class="cls-10" data-name="Rectangle 160" transform="translate(2.565)"/>
        </g>
        <g id="Group_180" data-name="Group 180" transform="translate(47.07 10.556)">
            <path id="Rectangle_161" d="M0 0h7.694v2.565H0z" class="cls-11" data-name="Rectangle 161" transform="translate(0 2.565)"/>
            <path id="Rectangle_162" d="M0 0h2.565v7.694H0z" class="cls-11" data-name="Rectangle 162" transform="translate(2.565)"/>
        </g>
        <path id="Path_374" d="M290.068 214.907a1.267 1.267 0 0 0-1.154-.694v-.013a14.008 14.008 0 0 0-7.053 1.906 8.255 8.255 0 0 1-.726-3.215l-2.565.054a10.815 10.815 0 0 0 1.169 4.664 14.188 14.188 0 0 0-2.409 2.662 15.736 15.736 0 0 0-11.227-.582l.786 2.436a13.2 13.2 0 0 1 9.166.4 14 14 0 0 0-1.248 5.783h.017a1.269 1.269 0 0 0 .692 1.154l25.646 12.823a1.3 1.3 0 0 0 .573.128 1.283 1.283 0 0 0 1.154-1.855zm-11.75 8.848a13.218 13.218 0 0 1 2 1.611l1.813-1.813a15.891 15.891 0 0 0-2.515-2.052 11.676 11.676 0 0 1 1.568-1.74c.185.214.372.428.573.63l1.125 1.125 1.818-1.816-1.124-1.124c-.105-.105-.2-.219-.3-.33a11.436 11.436 0 0 1 4.268-1.4 11.552 11.552 0 0 1-10.079 10.079 11.436 11.436 0 0 1 .849-3.179zm1.952 5.2a14.162 14.162 0 0 0 9.3-9.3l3.93 7.861-10.075 3.022zm6.506 3.253l7.885-2.37 1.971 3.941-5.223.746zm8.668 4.334l2.4-.344 1.026 2.059z" data-name="Path 374" transform="translate(-225.174 -174.149)"/>
        <path id="Path_375" d="M20.61 238.074v2.565a11.541 11.541 0 0 1 11.5 10.8 14.068 14.068 0 0 0-3.81-.537v.015a1.269 1.269 0 0 0-1.148.694l-12.819 25.641a1.283 1.283 0 0 0 1.721 1.727L41.7 266.157a1.269 1.269 0 0 0 .693-1.157h.017a14 14 0 0 0-1.363-6.009 10.674 10.674 0 0 1 14.562.5l1.813-1.813a13.228 13.228 0 0 0-17.7-.925 14.423 14.423 0 0 0-1.2-1.449l.037-.035a20.992 20.992 0 0 0 6.109-15.992l-2.565.144a18.422 18.422 0 0 1-5.359 14.034l-.153.153a14.318 14.318 0 0 0-1.88-1.161v-.274a14.122 14.122 0 0 0-14.101-14.099zm7.041 18.278a14.136 14.136 0 0 0 5.418 7.368h-9.1zm-9.3 18.606l1.131-2.262h3.393zM28 270.132h-7.24l1.923-3.847H35.7zm9.874-11.574l-1.55 1.742 1.923 1.706.881-.993a11.342 11.342 0 0 1 .641 2.615 11.552 11.552 0 0 1-10.079-10.077 11.4 11.4 0 0 1 2.475.583v1.891h2.565v-.613a11.641 11.641 0 0 1 3.143 3.144z" data-name="Path 375" transform="translate(-12.01 -195.46)"/>
        <path id="Path_376" d="M22.138 19.757a1.268 1.268 0 0 0-.355-.173 1.458 1.458 0 0 0-.256-.038A52.808 52.808 0 0 1 1.813 7.085L0 8.9a54.845 54.845 0 0 0 3.471 3.171v11.31a1.282 1.282 0 0 0 2.1.985l5.861-4.884 1.026 9.17a1.282 1.282 0 0 0 2.18.769l6.037-6.04 2.058 9.261a1.282 1.282 0 0 0 2.225.557l6.283-7.328 3.077 8.226a1.283 1.283 0 0 0 2.245.295l5.373-7.521 5.368 7.514a1.283 1.283 0 0 0 1.044.537 1.257 1.257 0 0 0 .24-.023 1.282 1.282 0 0 0 1-.948l2.07-8.251 7.4 6.342a1.282 1.282 0 0 0 2.109-.832l.987-8.889 5.808 5.808a1.282 1.282 0 0 0 2.189-.907v-8.8l5.591 4.659a1.282 1.282 0 0 0 2.1-.985V9.76c.3-.289.61-.566.907-.862l-1.81-1.813a53.182 53.182 0 0 1-54.801 12.672zm-16.1.885v-6.525q2.1 1.575 4.321 2.924zm8.673 5.074l-.739-6.647a55.31 55.31 0 0 0 5.1 2.29zm9.974 3.859l-1.508-6.8a55.716 55.716 0 0 0 6.071 1.473zm11.2 1.36l-2.271-6.056a56.167 56.167 0 0 0 5.763.3c.209 0 .418-.013.627-.014zm11.9-.3l-4.025-5.642a55.58 55.58 0 0 0 5.622-.714zm11.1-2.112l-5.869-5.031a56 56 0 0 0 6.668-2.131zm8.7-4.391l-4.316-4.316a55.246 55.246 0 0 0 4.316-2.276zm7.694-4.772l-4.574-3.811a55.735 55.735 0 0 0 4.574-3.479z" data-name="Path 376"/>
        <path id="Path_377" d="M192.15 210.429l-2.436.81a18.407 18.407 0 0 1 .624 2.4l2.52-.48a21.1 21.1 0 0 0-.708-2.73z" data-name="Path 377" transform="translate(-160.534 -172.067)"/>
        <path id="Path_378" d="M229.8 267.448l-1.252-2.238a15.777 15.777 0 0 0-3.456 2.618l1.813 1.813a13.268 13.268 0 0 1 2.895-2.193z" data-name="Path 378" transform="translate(-190.473 -218.422)"/>
        <path id="Path_379" d="M352.513 176.744l-2.2-1.321a10.816 10.816 0 0 0-1.258 3.094l2.5.589a8.268 8.268 0 0 1 .958-2.362z" data-name="Path 379" transform="translate(-295.368 -142.446)"/>
        <path id="Rectangle_163" d="M0 0h2.565v3.626H0z" data-name="Rectangle 163" transform="rotate(135 10.944 43.235)"/>
        <path id="Rectangle_164" d="M0 0h2.565v2.565H0z" data-name="Rectangle 164" transform="translate(3.471 42.614)"/>
        <path id="Path_380" d="M332.314 446.5v1.282h-1.282v2.565h1.282v1.282h2.565v-1.282h1.282v-2.565h-1.282V446.5z" data-name="Path 380" transform="translate(-280.115 -371.824)"/>
        <path id="Path_381" d="M176.478 18.108v-1.282h1.282v-2.565h-1.282v-1.282h-2.565v1.282h-1.282v2.565h1.282v1.282z" data-name="Path 381" transform="translate(-146.078 -4.987)"/>
        <path id="Path_382" d="M8.459 138.032v2.568H5.894v2.565h2.565v2.565h2.565v-2.565h2.565V140.6h-2.566v-2.565z" data-name="Path 382" transform="translate(-4.987 -110.806)"/>
        <path id="Path_383" d="M311.15 37.347v-2.565h2.565v-2.564h-2.565v-2.565h-2.565v2.565h-2.565v2.565h2.565v2.565z" data-name="Path 383" transform="translate(-258.951 -19.097)"/>
    </g>
</svg>
