<svg xmlns="http://www.w3.org/2000/svg" width="77.273" height="80" viewBox="0 0 77.273 80">
    <defs>
        <style>
            .cls-1{fill:#fca}.cls-2{fill:#f2a077}.cls-3{fill:#ce3a4c}.cls-4{fill:#475d6d}.cls-5{fill:#2c3f4f}.cls-6{fill:#f5b02e}.cls-7{fill:#aa473a}.cls-8{fill:#ffe926}.cls-9{fill:#44bfb6}
        </style>
    </defs>
    <g id="risa" transform="translate(-8.725)">
        <g id="Group_165" data-name="Group 165" transform="translate(9.896 1.172)">
            <g id="Group_163" data-name="Group 163">
                <path id="Path_285" d="M22.364 118.8l.873 7.107-3.35.411a2.879 2.879 0 0 0-2.506 3.208 2.879 2.879 0 0 0 3.208 2.506l3.35-.411.357 2.909a12.63 12.63 0 0 0 14.075 11 12.63 12.63 0 0 0 11-14.075l-1.932-15.731z" class="cls-1" data-name="Path 285" transform="translate(-17.181 -98.813)"/>
                <path id="Path_286" d="M146.153 116.208l1.932 15.731a12.632 12.632 0 0 1-9.037 13.675 12.718 12.718 0 0 0 2-.086 12.63 12.63 0 0 0 11-14.075l-1.932-15.731z" class="cls-2" data-name="Path 286" transform="translate(-119.856 -98.812)"/>
                <path id="Path_287" d="M137 230.572a4 4 0 0 1-4.452-3.478l-.132-1.094a.6.6 0 0 1 .527-.674l6.73-.826a.6.6 0 0 1 .674.527l.134 1.089a4 4 0 0 1-3.481 4.456z" class="cls-3" data-name="Path 287" transform="translate(-114.257 -190.593)"/>
                <path id="Path_288" d="M46.648 25.8l-22.8 2.8a2.286 2.286 0 0 0-1.991 2.548l.423 3.445-3.35.411a2.842 2.842 0 0 0-.74.193l-1.937-15.76a4.068 4.068 0 0 1 3.542-4.537l17.142-2.1c3.91-.48 7.5-2.295 9.047-5.3 9.133 3.631 6.754 17.554.664 18.3z" class="cls-4" data-name="Path 288" transform="translate(-16.222 -7.499)"/>
                <path id="Path_289" d="M189.015 7.5a7.806 7.806 0 0 1-1.432 1.944c6.084 4.954 3.608 16.173-1.842 16.843l3.938-.484c6.089-.748 8.469-14.671-.664-18.303z" class="cls-5" data-name="Path 289" transform="translate(-159.253 -7.5)"/>
            </g>
            <g id="Group_164" data-name="Group 164" transform="translate(36.569 31.142)">
                <path id="Path_290" d="M316.277 316.211l-.873 7.107 3.35.411a2.879 2.879 0 0 1 2.506 3.208 2.879 2.879 0 0 1-3.208 2.506l-3.35-.411-.357 2.909a12.63 12.63 0 0 1-14.075 11 12.63 12.63 0 0 1-11-14.075l1.932-15.731z" class="cls-1" data-name="Path 290" transform="translate(-283.099 -296.52)"/>
                <path id="Path_291" d="M329.7 323.73l-3.35-.411.873-7.107-25.071-3.078 21.356 2.622-.873 7.108-.7 5.714-.357 2.909c-.809 6.585-5.8 11.449-11.358 11.286.328.067.66.125 1 .167a12.63 12.63 0 0 0 14.075-11l.357-2.909 3.35.411a2.879 2.879 0 0 0 .7-5.714z" class="cls-2" data-name="Path 291" transform="translate(-294.044 -296.52)"/>
                <path id="Path_292" d="M331.262 427.983a4 4 0 0 0 4.452-3.478l.134-1.089a.6.6 0 0 0-.527-.674l-6.73-.826a.6.6 0 0 0-.674.527l-.134 1.089a4 4 0 0 0 3.479 4.451z" class="cls-3" data-name="Path 292" transform="translate(-315.646 -388.301)"/>
                <path id="Path_293" d="M285.053 213.915l-16.1-1.977a3.361 3.361 0 0 1-2.316-1.374 9.037 9.037 0 1 0-8.434 14.25l22.8 2.8a2.286 2.286 0 0 1 1.991 2.548l-.423 3.445 3.35.411a2.843 2.843 0 0 1 .74.193l1.935-15.762a4.068 4.068 0 0 0-3.543-4.534z" class="cls-6" data-name="Path 293" transform="translate(-250.264 -206.807)"/>
                <path id="Path_294" d="M457.18 250.365l-2.914-.358a4.068 4.068 0 0 1 3.542 4.533l-1.923 15.66 2.162.265a2.843 2.843 0 0 1 .74.193l1.935-15.762a4.068 4.068 0 0 0-3.542-4.531z" class="cls-7" data-name="Path 294" transform="translate(-422.391 -243.257)"/>
            </g>
        </g>
        <g id="Group_166" data-name="Group 166" transform="translate(8.725)">
            <path id="Path_295" d="M95.892 181.847a3.426 3.426 0 0 0-4.8.59 1.172 1.172 0 1 0 1.847 1.443 1.079 1.079 0 0 1 1.513-.186 1.172 1.172 0 0 0 1.443-1.847z" data-name="Path 295" transform="translate(-78.01 -152.823)"/>
            <path id="Path_296" d="M173.087 174.038a1.172 1.172 0 0 0-.2-1.645 3.425 3.425 0 0 0-4.8.59 1.172 1.172 0 1 0 1.847 1.443 1.079 1.079 0 0 1 1.513-.186 1.172 1.172 0 0 0 1.64-.202z" data-name="Path 296" transform="translate(-142.973 -144.846)"/>
            <path id="Path_297" d="M125.058 220.907a5.173 5.173 0 0 0 5.758 4.5 5.173 5.173 0 0 0 4.5-5.758l-.134-1.089a1.777 1.777 0 0 0-1.98-1.547l-6.73.826a1.777 1.777 0 0 0-1.547 1.98zm7.866-1.5l.065.526a2.823 2.823 0 0 1-5.6.688l-.065-.526z" data-name="Path 297" transform="translate(-106.757 -183.092)"/>
            <path id="Path_298" d="M46.774 12.5a13.045 13.045 0 0 0-1.024-7.1A10.349 10.349 0 0 0 40.091.083a1.172 1.172 0 0 0-1.475.553c-1.261 2.454-4.307 4.2-8.147 4.672l-6.777.832a1.172 1.172 0 1 0 .286 2.326l6.777-.832c4.124-.506 7.533-2.331 9.364-4.96 3.82 2.039 4.746 6.314 4.332 9.528-.43 3.341-2.187 5.853-4.271 6.109l-22.8 2.8a3.462 3.462 0 0 0-3.011 3.854l.28 2.282-1.776.218-1.78-14.5a2.9 2.9 0 0 1 2.521-3.227l5.688-.7a1.172 1.172 0 1 0-.286-2.326l-5.688.7a5.245 5.245 0 0 0-4.562 5.839L10.6 28.238a4.05 4.05 0 0 0 2.345 7.349 4.213 4.213 0 0 0 .5-.031l2.187-.269.215 1.746a13.806 13.806 0 0 0 13.67 12.122 14.033 14.033 0 0 0 1.71-.1 13.762 13.762 0 0 0 8.887-4.824 1.172 1.172 0 1 0-1.8-1.506 11.457 11.457 0 0 1-20.145-5.973l-.358-2.909a1.172 1.172 0 0 0-1.306-1.02l-3.345.412a1.835 1.835 0 0 1-.217.014 1.707 1.707 0 0 1-.644-3.287 1.689 1.689 0 0 1 .436-.113l3.35-.411a1.172 1.172 0 0 0 1.02-1.306l-.423-3.445a1.116 1.116 0 0 1 .97-1.242L39.3 20.781l1.618 13.175a11.343 11.343 0 0 1-.51 5.051 1.172 1.172 0 1 0 2.221.749 13.666 13.666 0 0 0 .615-6.086l-1.634-13.3c2.646-.947 4.659-3.944 5.164-7.87z" data-name="Path 298" transform="translate(-8.725)"/>
            <path id="Path_299" d="M387.838 381.1a1.079 1.079 0 0 1 1.513.186 1.172 1.172 0 0 0 1.847-1.443 3.425 3.425 0 0 0-4.8-.59 1.172 1.172 0 0 0 1.443 1.847z" data-name="Path 299" transform="translate(-327.004 -319.385)"/>
            <path id="Path_300" d="M309.4 369.8a1.172 1.172 0 0 0 1.443 1.847 1.079 1.079 0 0 1 1.513.186 1.172 1.172 0 1 0 1.847-1.443 3.425 3.425 0 0 0-4.803-.59z" data-name="Path 300" transform="translate(-262.042 -311.409)"/>
            <path id="Path_301" d="M329.12 415.245l-6.73-.826a1.767 1.767 0 0 0-1.31.363c-.842.657-.645 1.542-.8 2.273a5.173 5.173 0 0 0 8.309 4.7 5.949 5.949 0 0 0 2.081-4.531 1.779 1.779 0 0 0-1.55-1.979zm-1.977 4.664a2.806 2.806 0 0 1-2.082.578 2.822 2.822 0 0 1-2.458-3.146l.065-.527 5.6.688a3.172 3.172 0 0 1-1.125 2.408z" data-name="Path 301" transform="translate(-271.561 -349.655)"/>
            <path id="Path_302" d="M282.348 208.738a5.205 5.205 0 0 0-3.49-1.975l-16.1-1.977a2.2 2.2 0 0 1-1.508-.9 10.2 10.2 0 0 0-4.385-3.471 1.172 1.172 0 1 0-.894 2.167 7.853 7.853 0 0 1 3.377 2.674 4.547 4.547 0 0 0 3.124 1.852l16.1 1.977a2.9 2.9 0 0 1 2.521 3.227l-1.78 14.5-1.776-.218.28-2.282a3.462 3.462 0 0 0-3.011-3.854l-22.8-2.8a7.865 7.865 0 0 1-6.8-9.075 7.9 7.9 0 0 1 6.834-6.542 1.172 1.172 0 1 0-.28-2.327 10.257 10.257 0 0 0-8.868 8.493 10.207 10.207 0 0 0 7.677 11.566l-1.626 13.242a13.731 13.731 0 0 0 .357 5.228 1.172 1.172 0 0 0 2.265-.6 11.4 11.4 0 0 1-.3-4.34l1.618-13.174 21.638 2.657a1.116 1.116 0 0 1 .97 1.242l-.423 3.445a1.172 1.172 0 0 0 1.02 1.306l3.35.411a1.707 1.707 0 0 1-.2 3.4 1.809 1.809 0 0 1-.212-.013l-3.35-.413a1.172 1.172 0 0 0-1.306 1.02l-.358 2.91a11.455 11.455 0 0 1-20.608 5.385 1.172 1.172 0 0 0-1.889 1.387 13.775 13.775 0 0 0 9.444 5.53 14 14 0 0 0 1.709.105 13.806 13.806 0 0 0 13.67-12.122l.215-1.746c2.092.248 2.255.3 2.685.3a4.052 4.052 0 0 0 2.346-7.353l1.839-14.982a5.2 5.2 0 0 0-1.075-3.86z" data-name="Path 302" transform="translate(-206.186 -168.505)"/>
            <path id="Path_303" d="M383.653 68.126a1.172 1.172 0 0 0 1.172-1.172v-2.868a1.172 1.172 0 0 0-2.344 0v2.869a1.172 1.172 0 0 0 1.172 1.171z" class="cls-8" data-name="Path 303" transform="translate(-324.082 -53.084)"/>
            <path id="Path_304" d="M383.653 124.562a1.172 1.172 0 0 0 1.172-1.172v-2.869a1.172 1.172 0 0 0-2.344 0v2.869a1.172 1.172 0 0 0 1.172 1.172z" class="cls-8" data-name="Path 304" transform="translate(-324.082 -100.702)"/>
            <path id="Path_305" d="M402.692 102.656h2.869a1.172 1.172 0 1 0 0-2.344h-2.869a1.172 1.172 0 1 0 0 2.344z" class="cls-8" data-name="Path 305" transform="translate(-340.146 -84.638)"/>
            <path id="Path_306" d="M346.256 102.656h2.869a1.172 1.172 0 1 0 0-2.344h-2.869a1.172 1.172 0 1 0 0 2.344z" class="cls-8" data-name="Path 306" transform="translate(-292.528 -84.638)"/>
            <path id="Path_307" d="M115.688 359.286a1.172 1.172 0 0 0-1.172 1.172v2.869a1.172 1.172 0 0 0 2.344 0v-2.869a1.172 1.172 0 0 0-1.172-1.172z" class="cls-9" data-name="Path 307" transform="translate(-97.986 -303.148)"/>
            <path id="Path_308" d="M115.688 415.723a1.172 1.172 0 0 0-1.172 1.172v2.869a1.172 1.172 0 0 0 2.344 0v-2.869a1.172 1.172 0 0 0-1.172-1.172z" class="cls-9" data-name="Path 308" transform="translate(-97.986 -350.766)"/>
            <path id="Path_309" d="M137.594 396.684h-2.869a1.172 1.172 0 0 0 0 2.344h2.869a1.172 1.172 0 0 0 0-2.344z" class="cls-9" data-name="Path 309" transform="translate(-114.049 -334.702)"/>
            <path id="Path_310" d="M81.159 396.684h-2.868a1.172 1.172 0 0 0 0 2.344h2.869a1.172 1.172 0 1 0 0-2.344z" class="cls-9" data-name="Path 310" transform="translate(-66.432 -334.702)"/>
        </g>
    </g>
</svg>
