<svg xmlns="http://www.w3.org/2000/svg" width="79.975" height="80" viewBox="0 0 79.975 80">
    <defs>
        <style>
            .cls-1{fill:#fed2a4}.cls-2{fill:#f1a115}.cls-3{fill:#424d63}.cls-4{fill:#de4c3b}
        </style>
    </defs>
    <g id="tarjeta-de-credito" transform="translate(-.502)">
        <path id="Path_218" d="M127.33 235.214h-.011l10.287-10.573a4.493 4.493 0 0 1 6.865 5.8l-13.482 16.119a11.981 11.981 0 0 1-8.356 3.395h-20.044a6.012 6.012 0 0 0-4.176 1.687L96.07 253.9l-.025.02a3.107 3.107 0 0 0-.29-.336l-12.761-12.762a2.938 2.938 0 0 0-.548-.433c2.939-6.538 9.093-9.988 16.21-9.988a17.989 17.989 0 0 1 7.223 1.5h17.037a4.6 4.6 0 0 1 4.414 3.309zm0 0" class="cls-1" data-name="Path 218" transform="translate(-66.642 -187.33)"/>
        <path id="Path_219" d="M178.322 89.977v13.836a3.008 3.008 0 0 1-3.008 3.008h-36.1a3.008 3.008 0 0 1-3.008-3.008V89.977zm0 0" class="cls-2" data-name="Path 219" transform="translate(-113.553 -75.772)"/>
        <path id="Path_220" d="M136.211 49.988h42.111V56h-42.111zm0 0" class="cls-3" data-name="Path 220" transform="translate(-113.553 -42.469)"/>
        <path id="Path_221" d="M178.322 13v3.008h-42.111V13a3.008 3.008 0 0 1 3.008-3h36.1a3.008 3.008 0 0 1 3.004 3zm0 0" class="cls-2" data-name="Path 221" transform="translate(-113.553 -8.493)"/>
        <path id="Path_222" d="M34.417 353.238l-7.284 7.176L10.246 343.4l7.155-7.176a3.009 3.009 0 0 1 4.255 0l12.761 12.761a3.009 3.009 0 0 1 0 4.255zm0 0" class="cls-4" data-name="Path 222" transform="translate(-8.279 -281.918)"/>
        <path id="Path_223" d="M287.926 151.957a1.5 1.5 0 1 0 1.5 1.5 1.5 1.5 0 0 0-1.5-1.5zm0 0" data-name="Path 223" transform="translate(-241.178 -128.178)"/>
        <path id="Path_224" d="M221.292 332.762a1.5 1.5 0 1 0-2.128 0 1.506 1.506 0 0 0 2.128 0zm0 0" data-name="Path 224" transform="translate(-184.074 -278.523)"/>
        <path id="Path_225" d="M18.494 256.957a1.6 1.6 0 0 0 2.2.012l7.573-7.183a4.425 4.425 0 0 0 1.112-4.667l1.629-1.513a4.755 4.755 0 0 1 3.253-1.265h20.77a14.272 14.272 0 0 0 9.806-3.836c.109-.1-.825.957 14.167-16.294a5.87 5.87 0 0 0-.742-8.479 6.434 6.434 0 0 0-8.766.671l-9.218 9.121a6.372 6.372 0 0 0-4.857-2.239H38a20.829 20.829 0 0 0-7.822-1.5c-7.52 0-14.089 3.343-17.615 9.616a4.783 4.783 0 0 0-4.178 1.246l-7.428 7.174a1.464 1.464 0 0 0 0 2.121zM30.18 222.79a17.618 17.618 0 0 1 6.877 1.378 1.611 1.611 0 0 0 .626.126h17.739a3.01 3.01 0 1 1 0 6.016H42.677a1.5 1.5 0 1 0 0 3.008h12.745a6.142 6.142 0 0 0 6.248-6.018 5.816 5.816 0 0 0-.055-.786c8.917-8.825 10.174-10.065 10.228-10.126a3.219 3.219 0 0 1 4.4-.358 2.937 2.937 0 0 1 .366 4.245L62.6 236.4a11.1 11.1 0 0 1-7.571 2.932H34.265a7.927 7.927 0 0 0-5.422 2.108l-1.328 1.233-12.237-11.779c2.86-5.166 8.227-8.1 14.9-8.1zm-19.58 9.98a1.6 1.6 0 0 1 1.934-.212c.239.14 13.6 13.035 13.682 13.142a1.468 1.468 0 0 1-.143 1.951l-6.456 6.124-15.351-14.89zm0 0" data-name="Path 225" transform="translate(0 -177.403)"/>
        <path id="Path_226" d="M130.727 31.884h36.1a4.512 4.512 0 0 0 4.512-4.512V4.512A4.512 4.512 0 0 0 166.822 0h-36.1a4.512 4.512 0 0 0-4.512 4.512v22.86a4.512 4.512 0 0 0 4.517 4.512zm37.6-19.853h-39.1V9.023h39.1zm-1.5 16.845h-36.1a1.5 1.5 0 0 1-1.5-1.5V15.039h39.1v12.333a1.5 1.5 0 0 1-1.505 1.504zm-36.1-25.868h36.1a1.5 1.5 0 0 1 1.5 1.5v1.5h-39.1v-1.5a1.5 1.5 0 0 1 1.5-1.5zm0 0" data-name="Path 226" transform="translate(-105.037)"/>
        <path id="Path_227" d="M333.93 151.957h-6.016a1.5 1.5 0 0 0 0 3.008h6.016a1.5 1.5 0 1 0 0-3.008zm0 0" data-name="Path 227" transform="translate(-274.735 -128.178)"/>
    </g>
</svg>
