<svg xmlns="http://www.w3.org/2000/svg" id="telemarketer" width="80" height="80" viewBox="0 0 80 80">
    <defs>
        <style>
            .cls-1{fill:#f1a115}.cls-2{fill:#fff}.cls-3{fill:#ffd6be}.cls-4{fill:#619eff}.cls-5{fill:#b3d0ff}.cls-6{fill:#de4c3b}.cls-7{fill:#fed045}.cls-8{fill:#e4eeff}
        </style>
    </defs>
    <path id="Path_330" d="M34.375 294l-14.849 4.283A13.178 13.178 0 0 0 10 310.945V326.5h67.5v-15.555a13.178 13.178 0 0 0-9.526-12.662L53.125 294z" class="cls-1" data-name="Path 330" transform="translate(-8.438 -248.063)"/>
    <path id="Path_331" d="M174.438 304.469v-9.793l-2.344-.676h-18.75l-2.344.676v9.793l11.719-7.656z" class="cls-2" data-name="Path 331" transform="translate(-127.406 -248.063)"/>
    <path id="Path_332" d="M159.57 126.125v12.33a14.877 14.877 0 0 1-7.547 12.946 15.433 15.433 0 0 1-15.224.008l-.015-.008a14.877 14.877 0 0 1-7.547-12.946v-8.287z" class="cls-3" data-name="Path 332" transform="translate(-109.044 -106.418)"/>
    <g id="Group_169" data-name="Group 169" transform="translate(12.972 22.16)">
        <path id="Path_333" d="M89.992 155.934h-3.264a3.706 3.706 0 0 1-3.706-3.706v-6.7a3.705 3.705 0 0 1 3.706-3.705h3.265" class="cls-4" data-name="Path 333" transform="translate(-83.022 -141.824)"/>
        <g id="Group_168" data-name="Group 168">
            <path id="Path_334" d="M324.367 155.934h3.265a3.705 3.705 0 0 0 3.706-3.705v-6.7a3.705 3.705 0 0 0-3.706-3.706h-3.265z" class="cls-5" data-name="Path 334" transform="translate(-286.657 -141.824)"/>
            <path id="Path_335" d="M89.992 155.934h-3.264a3.706 3.706 0 0 1-3.706-3.706v-6.7a3.705 3.705 0 0 1 3.706-3.705h3.265l-.001 14.111z" class="cls-5" data-name="Path 335" transform="translate(-83.022 -141.824)"/>
        </g>
    </g>
    <path id="Path_336" d="M158.752 54a15.147 15.147 0 0 0-29.481 3.91c-.018.3-.028.61-.028.919h.017l-.022 1.77h17.617a13.178 13.178 0 0 0 7.48-2.328l4.417-3.045z" class="cls-6" data-name="Path 336" transform="translate(-109.045 -36.844)"/>
    <path id="Path_337" d="M213.873 238.347h-2a2.639 2.639 0 0 1-2.639-2.639 2.639 2.639 0 0 1 2.639-2.639h2a2.639 2.639 0 0 1 2.639 2.639 2.639 2.639 0 0 1-2.639 2.639z" class="cls-7" data-name="Path 337" transform="translate(-176.544 -196.652)"/>
    <path id="Path_338" d="M263.578 330h-32.031a5.547 5.547 0 0 0-5.547 5.547v21.328h43.125v-21.328a5.547 5.547 0 0 0-5.547-5.547z" class="cls-8" data-name="Path 338" transform="translate(-190.688 -278.438)"/>
    <path id="Path_339" d="M73.563 436a1.563 1.563 0 0 0 0 3.125h4.792a1.563 1.563 0 0 0 0-3.125z" data-name="Path 339" transform="translate(-60.75 -367.875)"/>
    <path id="Path_340" d="M140.083 436a1.563 1.563 0 1 0 1.1.458 1.57 1.57 0 0 0-1.1-.458z" data-name="Path 340" transform="translate(-116.876 -367.875)"/>
    <path id="Path_341" d="M178.583 185.194a1.563 1.563 0 1 0-1.1-.458 1.571 1.571 0 0 0 1.1.458z" data-name="Path 341" transform="translate(-149.361 -153.621)"/>
    <path id="Path_342" d="M257.142 185.194a1.563 1.563 0 1 0-1.1-.458 1.573 1.573 0 0 0 1.1.458z" data-name="Path 342" transform="translate(-215.646 -153.621)"/>
    <path id="Path_343" d="M72.891 50H40.859a7.117 7.117 0 0 0-7.109 7.109v19.766H3.125V62.883a11.67 11.67 0 0 1 8.4-11.161l12.311-3.552-1.768 7.9a1.563 1.563 0 0 0 2.38 1.649l4.826-3.153a1.563 1.563 0 0 0-1.709-2.616l-1.606 1.049 1.437-6.42a17.076 17.076 0 0 0 16.353-.232 16.46 16.46 0 0 0 7.279-8.51h2.919a5.274 5.274 0 0 0 5.268-5.268v-6.7a5.256 5.256 0 0 0-1.725-3.895 22.143 22.143 0 0 0-44.284-.062 5.255 5.255 0 0 0-1.8 3.957v6.7a5.274 5.274 0 0 0 5.268 5.268h3.013a16.5 16.5 0 0 0 4.9 6.867L10.655 48.72A14.741 14.741 0 0 0 0 62.883v15.555A1.563 1.563 0 0 0 1.563 80h76.875A1.563 1.563 0 0 0 80 78.438V57.109A7.117 7.117 0 0 0 72.891 50zM21.746 22.188a1.564 1.564 0 0 0 .015-.205 13.583 13.583 0 0 1 26.42-4.451l-3.778 2.6a11.564 11.564 0 0 1-6.593 2.052zM56.09 32.564a2.145 2.145 0 0 1-2.143 2.143h-2.079a16.373 16.373 0 0 0 .22-2.671v-8.314h1.859a2.145 2.145 0 0 1 2.143 2.143zM35.348 3.125A19.052 19.052 0 0 1 54.3 20.611a5.274 5.274 0 0 0-.357-.013h-1.901a1.566 1.566 0 0 0-.062-.2 16.708 16.708 0 0 0-33.286.2h-2.016c-.1 0-.191 0-.286.008A19.052 19.052 0 0 1 35.348 3.125zm-18.67 31.582a2.146 2.146 0 0 1-2.143-2.143v-6.7a2.145 2.145 0 0 1 2.143-2.143h1.954v8.314a16.373 16.373 0 0 0 .22 2.671zm5.078-2.671v-6.723H37.81a14.678 14.678 0 0 0 8.366-2.6l2.705-1.865c.031.375.048.755.048 1.138a1.563 1.563 0 0 0 .034.322v9.733a13.293 13.293 0 0 1-1.32 5.769h-6.3a4.209 4.209 0 0 0-4.011-2.951h-2a4.2 4.2 0 1 0 0 8.4h2a4.205 4.205 0 0 0 3.758-2.327h4.465a13.281 13.281 0 0 1-3.344 2.693 13.944 13.944 0 0 1-13.694 0 13.337 13.337 0 0 1-6.761-11.589zm15.573 8.1h-2a1.076 1.076 0 0 1 0-2.153h2a1.076 1.076 0 0 1 0 2.153zm39.546 36.739h-3.75v-6.823a1.563 1.563 0 0 0-3.125 0v6.823H36.875V57.109a3.989 3.989 0 0 1 3.984-3.984h32.032a3.989 3.989 0 0 1 3.984 3.984z" data-name="Path 343"/>
    <path id="Path_344" d="M335.734 382.5a5.234 5.234 0 1 0 5.234 5.234 5.24 5.24 0 0 0-5.234-5.234zm0 7.344a2.109 2.109 0 1 1 2.109-2.109 2.112 2.112 0 0 1-2.109 2.109z" data-name="Path 344" transform="translate(-278.859 -322.734)"/>
    <path id="Path_345" d="M389.2 201.069a1.558 1.558 0 0 0 1.1-.458 9.968 9.968 0 0 1 14.1 0 1.563 1.563 0 0 0 2.21-2.21 13.094 13.094 0 0 0-18.517 0 1.563 1.563 0 0 0 1.105 2.667z" data-name="Path 345" transform="translate(-327.066 -164.165)"/>
    <path id="Path_346" d="M424.834 239.029a1.563 1.563 0 0 0 1.1-2.667 6.889 6.889 0 0 0-9.731 0 1.563 1.563 0 1 0 2.21 2.21 3.76 3.76 0 0 1 5.311 0 1.558 1.558 0 0 0 1.11.457z" data-name="Path 346" transform="translate(-350.789 -197.733)"/>
    <path id="Path_347" d="M440.277 271.128a1.561 1.561 0 1 0 1.1-.458 1.565 1.565 0 0 0-1.1.458z" data-name="Path 347" transform="translate(-371.097 -228.378)"/>
    <path id="Path_348" d="M449.563 400a1.563 1.563 0 1 0 1.1.458 1.574 1.574 0 0 0-1.1-.458z" data-name="Path 348" transform="translate(-378 -337.5)"/>
</svg>
